<?xml version="1.0" encoding="utf-8"?>
<!-- Generator: Adobe Illustrator 23.0.1, SVG Export Plug-In . SVG Version: 6.00 Build 0)  -->
<svg version="1.1" id="Layer_1" xmlns="http://www.w3.org/2000/svg" xmlns:xlink="http://www.w3.org/1999/xlink" x="0px" y="0px"
	 viewBox="0 0 120 120" style="enable-background:new 0 0 120 120;" xml:space="preserve">
<style type="text/css">
	.st0{fill:#4A154B;}
	.st1{fill:#E01E5A;}
	.st2{fill:#36C5F0;}
	.st3{fill:#2EB67D;}
	.st4{fill:#ECB22E;}
</style>
<path id="Shape" class="st0" d="M120,108c0,6.6-5.4,12-12,12H12c-6.6,0-12-5.4-12-12V12C0,5.4,5.4,0,12,0h96c6.6,0,12,5.4,12,12V108
	L120,108z"/>
<g>
	<g>
		<path class="st1" d="M36.8,70.6c0,4.6-3.8,8.4-8.4,8.4S20,75.2,20,70.6c0-4.6,3.8-8.4,8.4-8.4h8.4V70.6z"/>
		<path class="st1" d="M41,70.6c0-4.6,3.8-8.4,8.4-8.4s8.4,3.8,8.4,8.4v21c0,4.6-3.8,8.4-8.4,8.4S41,96.2,41,91.6
			C41,91.6,41,70.6,41,70.6z"/>
	</g>
	<g>
		<path class="st2" d="M49.4,36.8c-4.6,0-8.4-3.8-8.4-8.4s3.8-8.4,8.4-8.4s8.4,3.8,8.4,8.4v8.4H49.4z"/>
		<path class="st2" d="M49.4,41c4.6,0,8.4,3.8,8.4,8.4s-3.8,8.4-8.4,8.4h-21c-4.6,0-8.4-3.8-8.4-8.4s3.8-8.4,8.4-8.4
			C28.4,41,49.4,41,49.4,41z"/>
	</g>
	<g>
		<path class="st3" d="M83.2,49.4c0-4.6,3.8-8.4,8.4-8.4c4.6,0,8.4,3.8,8.4,8.4s-3.8,8.4-8.4,8.4h-8.4V49.4z"/>
		<path class="st3" d="M79,49.4c0,4.6-3.8,8.4-8.4,8.4c-4.6,0-8.4-3.8-8.4-8.4v-21c0-4.6,3.8-8.4,8.4-8.4c4.6,0,8.4,3.8,8.4,8.4
			V49.4z"/>
	</g>
	<g>
		<path class="st4" d="M70.6,83.2c4.6,0,8.4,3.8,8.4,8.4c0,4.6-3.8,8.4-8.4,8.4c-4.6,0-8.4-3.8-8.4-8.4v-8.4H70.6z"/>
		<path class="st4" d="M70.6,79c-4.6,0-8.4-3.8-8.4-8.4c0-4.6,3.8-8.4,8.4-8.4h21c4.6,0,8.4,3.8,8.4,8.4c0,4.6-3.8,8.4-8.4,8.4H70.6
			z"/>
	</g>
</g>
</svg>